<?xml version="1.0" encoding="UTF-8"?> <svg xmlns="http://www.w3.org/2000/svg" width="55" height="55" viewBox="0 0 55 55" fill="none"><rect y="6" width="55" height="49" fill="black"></rect><path d="M26.5332 55C17.6709 55 8.83545 55 0 55C0 36.6667 0 18.3333 0 0C18.3333 0 36.6667 0 55 0C55 18.3333 55 36.6667 55 55C45.52 55 36.04 55 26.5332 55ZM45.765 24.4955C45.765 24.4955 45.7664 24.5005 45.7929 24.4898C45.8002 24.4728 45.8075 24.4558 45.8156 24.4385C45.8156 24.4385 45.8155 24.4377 45.843 24.422C45.8568 24.3944 45.8707 24.3667 45.8765 24.3386C45.8765 24.3386 45.8793 24.3462 45.9047 24.3399C45.9172 24.3185 45.9297 24.2972 45.9673 24.2551C45.9705 24.2448 45.9738 24.2345 46.0057 24.2095C46.0191 24.181 46.0325 24.1524 46.0381 24.1219C46.0381 24.1219 46.039 24.1299 46.0679 24.1193C46.0774 24.1017 46.087 24.0841 46.1268 24.0483C47.3886 22.3515 48.6503 20.6547 49.9121 18.9579C49.8975 18.9334 49.8829 18.9089 49.8683 18.8843C49.0473 18.8616 48.2264 18.8172 47.4055 18.8197C43.7558 18.8308 40.1325 19.1468 36.5499 19.8523C35.2794 20.1025 34.025 20.4347 32.7348 20.7272C32.7265 20.732 32.7182 20.7367 32.6756 20.7419C32.6333 20.759 32.591 20.7761 32.5074 20.7893C32.4798 20.7906 32.4522 20.7919 32.423 20.7543C32.4225 20.7285 32.4221 20.7026 32.4383 20.6366C32.4348 20.5795 32.4313 20.5223 32.4358 20.4222C32.4331 20.3641 32.4303 20.3061 32.4405 20.2111C32.4216 20.1577 32.4028 20.1042 32.3398 20.0379C32.2481 20.0406 32.1564 20.0432 32.0211 20.0351C31.9468 20.0393 31.8725 20.0435 31.7515 20.0403C31.6415 20.0423 31.5314 20.0443 31.3941 20.0378C31.3851 20.0405 31.376 20.0433 31.3171 20.0385C30.7787 20.0411 30.2404 20.0437 29.667 20.0353C29.643 20.0388 29.619 20.0423 29.5458 20.0383C29.3291 20.0409 29.1125 20.0435 28.8542 20.0344C28.7969 20.038 28.7397 20.0415 28.6333 20.0378C28.4343 20.0406 28.2353 20.0434 27.9906 20.0345C27.8811 20.038 27.7716 20.0416 27.6162 20.0381C27.5235 20.0408 27.4307 20.0436 27.2901 20.0348C27.1098 20.0383 26.9295 20.0419 26.7044 20.0385C26.6291 20.0414 26.5538 20.0443 26.4315 20.0354C26.2867 20.0388 26.142 20.0422 25.9497 20.0383C25.8216 20.0411 25.6935 20.0438 25.5185 20.035C25.3737 20.0383 25.2288 20.0416 25.0351 20.0378C24.8539 20.0404 24.6728 20.0429 24.4498 20.0341C24.3926 20.0379 24.3354 20.0417 24.2301 20.0384C24.0845 20.0412 23.9388 20.0439 23.7497 20.035C23.6752 20.0384 23.6008 20.0418 23.4788 20.038C23.351 20.0408 23.2232 20.0435 23.0561 20.0349C23.0158 20.0387 22.9755 20.0425 22.89 20.0387C22.7986 20.0415 22.7073 20.0443 22.5722 20.0617C22.5641 20.1673 22.549 20.273 22.5487 20.3787C22.5427 22.164 22.5363 23.9494 22.5355 25.7348C22.5353 26.2502 22.5524 26.7655 22.5587 27.2835C22.5587 27.2835 22.5626 27.2837 22.5767 27.3195C22.663 27.31 22.7493 27.3005 22.8797 27.2938C23.938 27.1036 24.9963 26.9134 26.0872 26.7225C26.1276 26.711 26.1681 26.6995 26.2459 26.6922C26.2697 26.6851 26.2934 26.6781 26.3561 26.6779C26.4332 26.661 26.5103 26.644 26.6249 26.6315C26.6479 26.6226 26.671 26.6138 26.7311 26.6136C26.8182 26.5892 26.9052 26.5648 27.0348 26.5507C27.2287 26.5233 27.4274 26.5138 27.6148 26.4627C27.7517 26.4253 27.9166 26.3648 27.9943 26.2595C28.2296 25.9406 28.4283 25.5948 28.6417 25.2597C29.0668 24.5922 29.4922 23.925 29.917 23.2569C29.917 23.2569 29.9178 23.257 29.9446 23.2394C29.9568 23.2103 29.969 23.1811 30.0047 23.1409C30.0132 23.1173 30.0217 23.0937 30.0583 23.0511C30.0669 23.0308 30.0754 23.0104 30.0797 22.9901C30.0797 22.9901 30.0809 22.9941 30.1054 22.9841C30.1197 22.9714 30.1259 22.9555 30.1383 22.9262C30.1383 22.9262 30.1375 22.9087 30.1654 22.8896C30.1742 22.8694 30.183 22.8492 30.2198 22.8122C30.2446 22.7643 30.2695 22.7165 30.3256 22.647C30.6075 22.2069 30.8892 21.7666 31.1716 21.3268C31.2994 21.1277 31.4287 20.9296 31.5593 20.7281C31.9743 21.0722 31.974 21.072 31.7393 21.5008C31.5077 21.9237 31.2768 22.347 31.0459 22.7703C30.4636 23.838 29.8809 24.9055 29.2994 25.9736C29.0393 26.4512 28.7815 26.9301 28.4928 27.4125C28.4676 27.4282 28.4423 27.4438 28.3793 27.4586C28.356 27.4674 28.3327 27.4762 28.2737 27.4736C28.2135 27.4886 28.1533 27.5035 28.0563 27.5162C28.0334 27.5242 28.0105 27.5323 27.9551 27.5282C27.9118 27.5406 27.8685 27.553 27.7888 27.5631C27.7655 27.5698 27.7423 27.5765 27.6821 27.5732C27.6226 27.5887 27.563 27.6042 27.4618 27.6174C27.422 27.6287 27.3822 27.64 27.3104 27.6384C27.2676 27.6505 27.2248 27.6625 27.1412 27.6729C27.1152 27.6804 27.0891 27.6879 27.0305 27.6838C26.9739 27.7125 26.9172 27.7413 26.8123 27.7655C26.4845 27.8077 26.1548 27.8397 25.8292 27.8953C25.5364 27.9453 25.2497 28.0312 24.9572 28.0841C24.2123 28.219 23.4656 28.3443 22.6759 28.4676C22.2943 28.5183 21.9121 28.5645 21.5315 28.622C21.3697 28.6464 21.2126 28.7006 21.0513 28.7303C20.8545 28.7665 20.6556 28.791 20.4219 28.8255C20.3821 28.8501 20.3424 28.8747 20.2579 28.8928C19.6639 28.984 19.0699 29.0752 18.4586 29.149C18.4295 29.1568 18.4004 29.1646 18.3273 29.1711C18.2708 29.1848 18.2143 29.1985 18.1188 29.2009C17.9886 29.229 17.8583 29.2571 17.6866 29.2824C17.647 29.2929 17.6073 29.3034 17.5321 29.3015C17.4717 29.316 17.4113 29.3305 17.3138 29.3441C17.291 29.3528 17.2681 29.3615 17.2178 29.3577C17.1905 29.3675 17.1632 29.3772 17.0906 29.3855C17.0345 29.4033 16.9785 29.4212 16.8996 29.4204C16.8709 29.4427 16.8422 29.465 16.7656 29.4836C16.3333 29.5586 15.9011 29.6337 15.4286 29.7016C15.3524 29.7218 15.2763 29.742 15.1563 29.7558C15.0523 29.7725 14.9484 29.7898 14.8443 29.8058C14.2975 29.8898 13.7506 29.9734 13.1684 30.06C13.1295 30.0845 13.0906 30.1089 13.0042 30.1271C12.8888 30.1303 12.7707 30.1187 12.6584 30.1393C12.2201 30.2198 11.7843 30.3136 11.3464 30.3964C10.872 30.4862 10.3972 30.5747 9.92049 30.6508C9.82193 30.6665 9.67029 30.6633 9.6183 30.6035C9.37762 30.3265 9.16345 30.0264 8.91664 29.7045C9.0506 29.676 9.11888 29.6592 9.18798 29.6471C10.0067 29.5041 10.826 29.3645 11.6436 29.215C11.7237 29.2003 11.8562 29.1268 11.8574 29.078C11.8721 28.473 11.867 27.8675 11.867 27.2223C10.0656 27.5808 8.30276 27.9316 6.49811 28.2908C6.68443 28.5799 6.83839 28.8196 6.99303 29.0588C7.95395 30.5451 8.91503 32.0314 9.8888 33.5433C9.90349 33.5545 9.91818 33.5656 9.93375 33.572C9.93375 33.572 9.92896 33.5724 9.93527 33.606C9.95121 33.6218 9.96715 33.6376 9.97857 33.6673C9.97857 33.6673 9.9898 33.6766 9.99291 33.706C10.0078 33.7175 10.0227 33.7291 10.0369 33.7344C10.0369 33.7344 10.0336 33.7398 10.041 33.7709C10.0563 33.7853 10.0716 33.7997 10.088 33.8437C10.1054 33.8661 10.1227 33.8886 10.141 33.9403C10.1584 33.9614 10.1757 33.9825 10.2246 34.0395C10.3215 34.0483 10.4185 34.0647 10.5155 34.0648C12.178 34.0669 13.8406 34.0688 15.5031 34.0667C16.8524 34.065 18.2017 34.058 19.5905 34.0636C19.6309 34.0603 19.6712 34.057 19.761 34.0647C20.8547 34.0609 21.9485 34.0571 23.0816 34.0638C23.122 34.0606 23.1623 34.0575 23.2501 34.0653C23.3956 34.0611 23.5411 34.0569 23.7334 34.0629C23.8608 34.0601 23.9883 34.0573 24.1626 34.0655C24.2904 34.0614 24.4182 34.0573 24.5921 34.0633C24.7018 34.0606 24.8116 34.0578 24.9675 34.0661C25.0778 34.0624 25.1881 34.0588 25.3458 34.065C25.4907 34.062 25.6356 34.0591 25.8285 34.0665C25.9919 34.0621 26.1552 34.0577 26.3659 34.0635C26.511 34.0606 26.6561 34.0576 26.8475 34.0651C26.9576 34.061 27.0677 34.0569 27.2217 34.0632C27.2964 34.0602 27.3712 34.0572 27.4945 34.0652C27.6933 34.0612 27.8921 34.0571 28.1383 34.0634C28.2835 34.0603 28.4287 34.0572 28.6201 34.0644C28.73 34.0602 28.8399 34.0559 28.995 34.0621C29.0874 34.0596 29.1797 34.057 29.3215 34.0655C29.7526 34.061 30.1838 34.0566 30.659 34.0623C30.7338 34.0595 30.8087 34.0567 30.932 34.0652C31.1309 34.0614 31.3297 34.0576 31.5737 34.0641C31.6658 34.0611 31.7579 34.0581 31.898 34.0658C32.0612 34.0616 32.2245 34.0574 32.4357 34.0636C32.5987 34.0606 32.7616 34.0576 32.9516 34.0627C32.9606 34.0601 32.9697 34.0575 33.0256 34.0645C33.1531 34.0615 33.2806 34.0584 33.4352 34.0633C33.4442 34.0605 33.4532 34.0578 33.5117 34.0651C34.1574 34.0619 34.8032 34.0587 35.4761 34.0635C35.4851 34.0608 35.4941 34.0581 35.5527 34.065C36.4549 34.0654 37.3571 34.0684 38.2593 34.0644C38.4659 34.0635 38.6739 34.0412 38.7645 33.7972C38.7645 33.7972 38.7788 33.7873 38.8105 33.7861C38.821 33.7685 38.8316 33.7509 38.8661 33.7223C38.8802 33.7096 38.8868 33.6938 38.9152 33.6602C38.9303 33.6317 38.9454 33.6033 38.9866 33.5598C39.0066 33.526 39.0266 33.4921 39.0742 33.4435C39.0881 33.4163 39.1021 33.389 39.1088 33.36C39.1088 33.36 39.1097 33.3673 39.1385 33.3571C39.147 33.3393 39.1555 33.3214 39.1925 33.2855C39.2541 33.1937 39.3157 33.1018 39.4081 32.9914C39.4203 32.9711 39.4324 32.9507 39.4654 32.9222C39.4781 32.912 39.4837 32.8988 39.5108 32.8653C39.5247 32.8358 39.5386 32.8062 39.5453 32.7724C39.5453 32.7724 39.5453 32.7808 39.577 32.7676C39.5865 32.7472 39.596 32.7267 39.6319 32.6918C39.648 32.667 39.6642 32.6423 39.7083 32.6011C39.9951 32.21 40.282 31.8188 40.5957 31.4131C40.6167 31.3791 40.6376 31.3451 40.686 31.2958C40.6999 31.2683 40.7138 31.2409 40.7202 31.2115C40.7202 31.2115 40.721 31.2192 40.7501 31.2091C40.7597 31.1915 40.7693 31.1739 40.8019 31.1452C40.8154 31.1327 40.8216 31.1172 40.8501 31.0836C40.8663 31.0549 40.8824 31.0261 40.9182 30.9891C40.93 30.9791 40.935 30.9663 40.9648 30.9322C41.2937 30.4871 41.6225 30.042 41.9482 29.595C41.9482 29.595 41.9504 29.598 41.9772 29.585C41.9981 29.5523 42.0191 29.5196 42.0575 29.4751C42.0575 29.4751 42.0622 29.4545 42.0891 29.4381C42.0974 29.4193 42.1057 29.4005 42.1098 29.3808C42.1098 29.3808 42.1125 29.3841 42.1414 29.3693C42.1549 29.3405 42.1684 29.3118 42.1739 29.2806C42.1739 29.2806 42.1756 29.2888 42.2039 29.2783C42.2123 29.2605 42.2207 29.2428 42.2228 29.2247C42.2228 29.2247 42.2271 29.2293 42.2587 29.2125C42.3555 29.0743 42.4523 28.9361 42.5449 28.7933C42.5449 28.7933 42.5451 28.7995 42.5728 28.7892C42.5805 28.7717 42.5883 28.7542 42.5927 28.7358C42.5927 28.7358 42.5949 28.7384 42.6259 28.7213C42.6764 28.6448 42.7269 28.5683 42.777 28.4884C42.777 28.4884 42.7738 28.4869 42.8013 28.4764C42.809 28.4589 42.8166 28.4414 42.8174 28.4208C42.8174 28.4208 42.8181 28.4283 42.8475 28.4179C42.8576 28.4001 42.8677 28.3823 42.8999 28.3544C42.9128 28.3425 42.9185 28.3278 42.9452 28.2944C42.9593 28.2659 42.9733 28.2374 42.9794 28.2059C42.9794 28.2059 42.9803 28.2144 43.0099 28.204C43.0194 28.1859 43.029 28.1678 43.0659 28.1329C43.107 28.0709 43.1482 28.0089 43.2159 27.9319C43.2238 27.9137 43.2318 27.8954 43.2372 27.8762C43.2372 27.8762 43.2391 27.8781 43.267 27.8628C43.2813 27.8351 43.2955 27.8074 43.302 27.7772C43.302 27.7772 43.3038 27.7851 43.3323 27.7749C43.3408 27.7573 43.3494 27.7397 43.3513 27.7206C43.3513 27.7206 43.3526 27.7272 43.3804 27.7161C43.3887 27.6985 43.397 27.6809 43.4339 27.648C43.4565 27.6118 43.4791 27.5756 43.5285 27.5264C43.542 27.5005 43.5554 27.4747 43.5961 27.4355C43.6225 27.3932 43.6488 27.3509 43.7062 27.2895C43.7665 27.1998 43.8268 27.1101 43.8824 27.0171C43.8824 27.0171 43.8857 27.0217 43.9167 27.005C43.9757 26.9191 44.0348 26.8331 44.1187 26.7341C44.1314 26.7098 44.1441 26.6855 44.1844 26.6455C44.1927 26.6266 44.2011 26.6077 44.205 26.5882C44.205 26.5882 44.2075 26.5919 44.2364 26.5774C44.2507 26.5494 44.2651 26.5215 44.2721 26.49C44.2721 26.49 44.2739 26.4979 44.3021 26.4872C44.3099 26.4693 44.3176 26.4514 44.3187 26.4317C44.3187 26.4317 44.3199 26.4386 44.3476 26.4273C44.3555 26.4095 44.3635 26.3917 44.3987 26.3605C44.4258 26.3188 44.453 26.277 44.5079 26.218C44.5132 26.1979 44.5185 26.1778 44.5429 26.127C44.6266 26.0138 44.7103 25.9006 44.8262 25.7856C44.8357 25.7672 44.8453 25.7487 44.8498 25.7294C44.8498 25.7294 44.8532 25.7332 44.8848 25.716C45.0565 25.4741 45.2282 25.2321 45.3978 24.9843C45.3978 24.9843 45.3952 24.9899 45.4244 24.9795C45.4343 24.9618 45.4442 24.9441 45.4767 24.9161C45.49 24.904 45.4959 24.8889 45.5225 24.8552C45.5363 24.8267 45.55 24.7982 45.5559 24.7673C45.5559 24.7673 45.5569 24.7754 45.586 24.765C45.5948 24.7469 45.6036 24.7288 45.6385 24.6963C45.6641 24.6544 45.6896 24.6125 45.7433 24.5537C45.7522 24.5343 45.7612 24.515 45.765 24.4955ZM42.2544 37.336C42.2821 37.3181 42.3098 37.3002 42.3659 37.2792C42.3892 37.2639 42.4125 37.2486 42.4701 37.2306C42.498 37.2124 42.526 37.1942 42.5863 37.1719C42.6242 37.1512 42.662 37.1305 42.7302 37.1093C42.7451 37.0965 42.7601 37.0837 42.8119 37.0643C42.9298 37.004 43.0477 36.9438 43.2131 36.8592C42.5575 36.3555 41.9318 35.8749 41.2907 35.3653C41.2623 35.3496 41.234 35.3338 41.195 35.2995C41.1848 35.2885 41.1722 35.2824 41.1436 35.2547C41.1262 35.2459 41.1087 35.2371 41.0792 35.2052C41.0677 35.1908 41.0528 35.1826 41.0256 35.1568C41.0147 35.1417 40.9998 35.1346 40.9704 35.1205C40.9704 35.1205 40.9528 35.1148 40.9366 35.088C40.9179 35.0795 40.8993 35.0709 40.8797 35.0678C40.8797 35.0678 40.8849 35.0662 40.8692 35.0304C40.5669 35.0133 40.2646 34.9961 39.9141 34.9726C39.7697 34.9806 39.6254 34.9887 39.4326 34.9825C39.0549 35.0024 38.6772 35.0223 38.2582 35.0348C38.146 35.0454 38.0339 35.0561 37.8855 35.0499C37.683 35.0639 37.4805 35.0779 37.2328 35.0854C37.0862 35.0977 36.9396 35.11 36.7578 35.113C36.7338 35.1158 36.7099 35.1186 36.6486 35.1043C36.4465 35.1173 36.2444 35.1303 35.997 35.1367C35.8325 35.1503 35.6679 35.1639 35.4775 35.1688C35.4686 35.1706 35.4597 35.1725 35.4162 35.1576C35.3027 35.1682 35.1893 35.1789 35.0262 35.183C34.8283 35.1949 34.6303 35.2069 34.3854 35.2029C34.0793 35.2223 33.7732 35.2416 33.426 35.2536C33.3131 35.2637 33.2001 35.2737 33.052 35.266C32.885 35.2788 32.7179 35.2916 32.5038 35.2978C32.3947 35.3071 32.2855 35.3164 32.1287 35.3101C31.8398 35.3263 31.5508 35.3425 31.2156 35.3522C31.0335 35.3658 30.8515 35.3793 30.6364 35.3765C30.5223 35.386 30.4081 35.3955 30.2468 35.399C30.0822 35.4122 29.9176 35.4253 29.7197 35.4294C29.6969 35.4321 29.6742 35.4348 29.6132 35.4208C29.375 35.4357 29.1369 35.4506 28.8534 35.4585C28.6891 35.4719 28.5247 35.4853 28.3259 35.4822C28.2124 35.4916 28.099 35.5011 27.9359 35.5044C27.6836 35.52 27.4314 35.5355 27.1394 35.5416C27.0988 35.5451 27.0583 35.5486 26.9804 35.5355C26.7961 35.5473 26.6119 35.559 26.3801 35.5639C26.1447 35.5791 25.9092 35.5943 25.6434 35.5931C25.5648 35.6014 25.4862 35.6096 25.3586 35.6121C25.1418 35.6277 24.925 35.6433 24.6729 35.6494C24.6489 35.6524 24.625 35.6554 24.5643 35.6409C24.3621 35.6547 24.16 35.6685 23.9115 35.6754C23.7291 35.6892 23.5468 35.7031 23.3381 35.7091C23.3292 35.711 23.3202 35.713 23.276 35.6986C23.1268 35.7091 22.9776 35.7195 22.7813 35.7235C22.6162 35.7358 22.4511 35.748 22.245 35.7508C22.1891 35.7552 22.1332 35.7595 22.0392 35.7473C21.7657 35.7615 21.4921 35.7757 21.1843 35.7829C21.1393 35.7903 21.0943 35.7976 21.0044 35.7971C20.9141 35.8051 20.8237 35.8131 20.698 35.8123C20.674 35.8151 20.6501 35.8178 20.5912 35.8048C20.4595 35.8143 20.3278 35.8238 20.1475 35.8278C20.0023 35.8391 19.8571 35.8504 19.6733 35.8482C19.6334 35.854 19.5934 35.8597 19.5067 35.8496C19.2002 35.8665 18.8937 35.8833 18.5442 35.8935C18.4144 35.9061 18.2845 35.9187 18.1193 35.9221C18.0953 35.9251 18.0712 35.928 18.0144 35.9156C17.9002 35.925 17.7861 35.9344 17.6233 35.9379C17.4236 35.9511 17.2239 35.9642 16.9824 35.9685C16.9258 35.9731 16.8692 35.9776 16.7763 35.9663C16.5916 35.9772 16.4068 35.9881 16.1758 35.9929C16.012 36.0064 15.8483 36.0199 15.6586 36.0255C15.6497 36.0275 15.6409 36.0294 15.5957 36.015C15.4641 36.0258 15.3325 36.0367 15.1519 36.0415C14.9721 36.0523 14.7923 36.063 14.5647 36.0584C14.2229 36.0777 13.8811 36.097 13.4972 36.1085C13.3854 36.1181 13.2737 36.1277 13.1248 36.1196C12.9396 36.1343 12.7544 36.149 12.5244 36.1571C12.4502 36.1649 12.3759 36.1727 12.2599 36.1665C12.2165 36.1718 12.1731 36.177 12.0844 36.1672C11.8523 36.1824 11.6202 36.1976 11.3392 36.2065C11.1771 36.2184 11.0149 36.2303 10.808 36.2279C10.6613 36.239 10.5146 36.25 10.3196 36.2553C10.175 36.2642 10.0303 36.2731 9.83796 36.2697C9.6207 36.2866 9.40343 36.3035 9.14035 36.3136C8.97687 36.3268 8.8134 36.3399 8.6166 36.3374C8.52011 36.3478 8.42362 36.3582 8.27788 36.3623C8.09828 36.3748 7.91869 36.3873 7.69226 36.3857C7.46146 36.4168 7.23065 36.4479 6.99984 36.4789C7.00067 36.4887 7.0015 36.4985 7.00234 36.5083C7.24723 36.5083 7.49211 36.5083 7.77905 36.5184C7.83651 36.5173 7.89397 36.5163 7.98864 36.5346C8.13764 36.5352 8.28665 36.5358 8.48202 36.5519C8.66274 36.5576 8.84346 36.5633 9.06059 36.5833C9.17433 36.5839 9.28806 36.5845 9.4421 36.5957C9.55422 36.6005 9.66634 36.6052 9.82387 36.624C10.059 36.6284 10.2941 36.6328 10.5727 36.6463C10.7374 36.6529 10.9022 36.6594 11.1097 36.6797C11.2921 36.6832 11.4744 36.6866 11.697 36.7009C11.8092 36.7063 11.9214 36.7116 12.0791 36.7319C12.3324 36.7369 12.5858 36.7419 12.8656 36.7525C12.8742 36.7496 12.8828 36.7467 12.9261 36.7553C12.9501 36.753 12.9742 36.7507 13.035 36.7625C13.1126 36.763 13.1903 36.7635 13.312 36.7782C13.4044 36.7795 13.4968 36.7808 13.6279 36.7954C13.7584 36.795 13.8888 36.7946 14.0629 36.8032C14.2099 36.8107 14.3569 36.8182 14.5481 36.8407C14.7477 36.8431 14.9473 36.8455 15.1911 36.8572C15.3918 36.8643 15.5925 36.8714 15.8375 36.8933C16.0374 36.8971 16.2373 36.9009 16.4811 36.914C16.6269 36.9208 16.7728 36.9275 16.9622 36.9488C17.1451 36.9517 17.328 36.9547 17.5464 36.9661C17.5704 36.9635 17.5944 36.9609 17.6592 36.9746C17.9145 36.9827 18.1698 36.9908 18.4545 37.0172C18.5338 37.0148 18.6131 37.0125 18.7354 37.0196C18.8828 37.0266 19.0301 37.0335 19.221 37.0549C19.4207 37.0578 19.6204 37.0608 19.8556 37.0719C19.8796 37.0692 19.9035 37.0664 19.9694 37.0766C20.1528 37.0835 20.3362 37.0904 20.5624 37.1108C20.7447 37.1132 20.9269 37.1156 21.1525 37.1281C21.353 37.1375 21.5536 37.1469 21.7969 37.1692C22.0114 37.174 22.226 37.1788 22.4898 37.1975C22.7102 37.2035 22.9307 37.2095 23.1784 37.232C23.2404 37.2289 23.3024 37.2258 23.4126 37.2318C23.589 37.2354 23.7653 37.239 23.9431 37.2404C23.9431 37.2404 23.9456 37.2401 23.9808 37.2642C24.1692 37.2682 24.3576 37.2722 24.586 37.2843C24.6265 37.2818 24.6669 37.2792 24.7521 37.2883C25.0422 37.299 25.3323 37.3097 25.6542 37.3386C25.7505 37.3366 25.8469 37.3347 25.9882 37.3421C26.2238 37.3525 26.4594 37.3629 26.7244 37.3869C26.7859 37.3851 26.8473 37.3833 26.9488 37.3896C26.9894 37.3875 27.0299 37.3855 27.1146 37.3951C27.4043 37.4064 27.6941 37.4176 28.0134 37.4421C28.075 37.4402 28.1365 37.4383 28.2447 37.4454C28.371 37.4485 28.4972 37.4516 28.6563 37.4711C28.7176 37.4709 28.7788 37.4707 28.8841 37.4844C29.0675 37.4874 29.2509 37.4904 29.4699 37.5011C29.4939 37.4986 29.5178 37.4961 29.5765 37.5049C29.6005 37.5026 29.6245 37.5004 29.6819 37.5096C29.705 37.5074 29.7281 37.5052 29.7913 37.5212C30.0129 37.5264 30.2345 37.5316 30.4879 37.5551C30.5847 37.5537 30.6815 37.5523 30.8219 37.56C31.0582 37.5696 31.2944 37.5792 31.5638 37.6075C31.6775 37.6053 31.7912 37.6032 31.9496 37.61C32.2394 37.6215 32.5293 37.6331 32.8463 37.6617C32.9083 37.6584 32.9703 37.6552 33.0761 37.6608C33.2236 37.6686 33.371 37.6763 33.5615 37.6985C33.7251 37.7005 33.8887 37.7025 34.099 37.7136C34.3705 37.7238 34.642 37.734 34.9527 37.7575C35.0825 37.7586 35.2124 37.7598 35.3855 37.7705C35.5684 37.7795 35.7513 37.7885 35.972 37.8105C36.0839 37.8109 36.1959 37.8114 36.354 37.821C36.662 37.8338 36.97 37.8466 37.3004 37.8765C37.3453 37.8726 37.3903 37.8686 37.4808 37.874C37.7891 37.8865 38.0974 37.8991 38.4352 37.9294C38.5141 37.9268 38.593 37.9242 38.7166 37.9309C39.0069 37.9422 39.2971 37.9535 39.6188 37.9837C39.7152 37.9816 39.8116 37.9796 39.9521 37.9871C40.1708 37.9974 40.3895 38.0077 40.6378 38.0369C40.7264 38.0212 40.8151 38.0054 40.9182 37.9901C40.9182 37.9901 40.9279 37.9794 40.9612 37.9766C40.9786 37.9633 40.9959 37.9501 41.0268 37.9386C41.0268 37.9386 41.036 37.9286 41.0729 37.9257C41.1242 37.8937 41.1755 37.8617 41.2409 37.83C41.2409 37.83 41.2503 37.8194 41.2838 37.8162C41.301 37.8024 41.3181 37.7887 41.3485 37.7764C41.3485 37.7764 41.3573 37.7664 41.3914 37.7646C41.4192 37.7465 41.4469 37.7285 41.5039 37.7071C41.5277 37.6912 41.5516 37.6753 41.6081 37.6556C41.6249 37.6422 41.6416 37.6287 41.6715 37.6171C41.6715 37.6171 41.6805 37.6074 41.7143 37.6037C41.7317 37.59 41.7491 37.5762 41.7792 37.5638C41.7792 37.5638 41.7878 37.5543 41.8216 37.5502C41.8391 37.5365 41.8566 37.5229 41.9044 37.507C41.9383 37.487 41.9721 37.4669 42.0389 37.445C42.0648 37.4267 42.0907 37.4085 42.1115 37.3855C42.1115 37.3855 42.114 37.392 42.1469 37.3912C42.1724 37.3726 42.198 37.354 42.219 37.3315C42.219 37.3315 42.2205 37.3373 42.2544 37.336ZM18.6546 39.4746C21.0113 39.6375 23.3682 39.7991 25.7249 39.9638C27.3227 40.0754 28.92 40.1951 30.518 40.3042C32.8393 40.4628 35.161 40.6154 37.4826 40.7691C37.5711 40.7749 37.6735 40.7928 37.7474 40.7582C38.3043 40.4978 38.8556 40.2255 39.4275 39.9479C39.3797 39.8954 39.36 39.8657 39.3332 39.8455C38.7906 39.4356 38.2509 39.0215 37.7 38.6229C37.6094 38.5573 37.4684 38.5333 37.3516 38.5358C35.2219 38.581 33.0923 38.6325 30.9628 38.6841C26.7663 38.7857 22.5698 38.8886 18.3733 38.9899C16.8076 39.0277 15.2417 39.0623 13.6759 39.0984C13.676 39.1099 13.6761 39.1214 13.6762 39.1328C15.3189 39.2459 16.9616 39.3589 18.6546 39.4746ZM26.4139 16.4962C26.3641 16.6867 26.2973 16.8746 26.2689 17.0682C26.2313 17.3254 26.1173 17.41 25.8473 17.4069C24.505 17.3918 23.1623 17.4012 21.8197 17.4019C21.7243 17.402 21.6289 17.4019 21.529 17.4019C21.5174 17.4679 21.5072 17.5018 21.5061 17.5359C21.4911 18.0164 21.4916 18.0209 20.997 18.0432C18.6844 18.1474 16.3717 18.249 14.0446 18.3521C14.1453 18.3736 14.2367 18.3995 14.3298 18.412C14.7022 18.462 15.0748 18.5107 15.4479 18.5547C17.2336 18.765 19.0201 18.97 20.805 19.1871C21.0369 19.2154 21.2226 19.1687 21.4035 19.0296C21.4671 18.9808 21.5637 18.9527 21.6452 18.9526C25.5207 18.9504 29.3962 18.9525 33.2716 18.9532C33.3496 18.9532 33.4275 18.9435 33.5206 18.9373C33.5206 18.4254 33.5206 17.9295 33.5206 17.399C31.6936 17.399 29.8737 17.399 28.0287 17.399C28.0287 17.2772 28.0288 17.1897 28.0287 17.1022C28.0272 16.3236 28.0211 15.5449 28.0275 14.7663C28.029 14.5851 27.9836 14.5031 27.7876 14.5171C27.5828 14.5317 27.3755 14.529 27.1704 14.516C26.981 14.5041 26.9026 14.5873 26.8595 14.7647C26.7223 15.3296 26.5706 15.891 26.4139 16.4962ZM15.8716 24.7153C14.9679 24.7157 14.0642 24.7178 13.1605 24.7151C13.0087 24.7147 12.9166 24.723 12.9188 24.9277C12.9316 26.1712 12.9281 27.4149 12.93 28.6585C12.9301 28.7526 12.93 28.8467 12.93 28.9427C13.0337 28.9427 13.0971 28.9518 13.1571 28.9414C14.47 28.7148 15.7821 28.4835 17.0956 28.2608C17.2559 28.2336 17.2705 28.1418 17.2703 28.016C17.2687 26.987 17.2657 25.9581 17.271 24.9291C17.2718 24.7635 17.2133 24.7099 17.0526 24.7132C16.677 24.7209 16.3011 24.7154 15.8716 24.7153ZM19.8462 22.822C19.3492 22.822 18.8522 22.822 18.3491 22.822C18.3491 24.5845 18.3491 26.305 18.3491 28.0384C18.4231 28.0347 18.4762 28.0374 18.5274 28.0287C19.418 27.878 20.3072 27.7186 21.1996 27.5795C21.4191 27.5453 21.4891 27.4736 21.487 27.243C21.4745 25.8652 21.4814 24.4873 21.4809 23.1094C21.4809 23.0226 21.4736 22.9359 21.4684 22.8218C20.9327 22.8218 20.4163 22.8218 19.8462 22.822ZM14.6364 20.3779C13.1544 20.3779 11.6725 20.3779 10.1906 20.3779C10.1887 20.4052 10.1869 20.4324 10.185 20.4597C10.2769 20.4773 10.3682 20.5005 10.4609 20.5116C11.1533 20.5949 11.8459 20.6764 12.5386 20.7571C15.1943 21.0668 17.8524 21.3574 20.5039 21.6993C21.1173 21.7783 21.5926 21.5585 22.086 21.3139C21.8257 21.0452 21.5635 20.7897 21.3199 20.5175C21.1771 20.3579 21.0245 20.2985 20.8079 20.3018C18.7687 20.3336 16.7294 20.3538 14.6364 20.3779ZM13.7903 22.9655C14.8478 23.0801 15.9052 23.1963 16.9632 23.3068C17.0551 23.3164 17.1847 23.3244 17.2394 23.2726C17.5218 23.0048 17.7854 22.7172 18.0754 22.416C17.7317 22.2597 17.4476 22.1049 17.0811 22.1314C15.3335 22.2578 13.5844 22.3617 11.8358 22.4741C11.3914 22.5026 10.9471 22.5331 10.5028 22.5627C10.5039 22.5711 10.5049 22.5795 10.5059 22.5878C11.5847 22.7115 12.6635 22.8352 13.7903 22.9655Z" fill="#FFFFFE"></path></svg> 